<svg width="418" height="316" viewBox="0 0 418 316" fill="none" xmlns="http://www.w3.org/2000/svg">
<path d="M362.335 105.972V294.26H71.7568V105.972C71.7568 96.3828 79.5257 88.6139 89.1154 88.6139H344.976C354.566 88.6139 362.335 96.3828 362.335 105.972Z" fill="#0068C6"/>
<path d="M90.5303 263.67V119.191C90.5303 112.676 95.8174 107.389 102.332 107.389H331.757C338.271 107.389 343.558 112.676 343.558 119.191V263.67C343.558 270.185 338.271 275.472 331.757 275.472H102.332C95.8174 275.472 90.5303 270.198 90.5303 263.67Z" fill="#A4E7FF"/>
<path d="M373.637 287.327V294.503C373.637 302.757 366.934 309.447 358.693 309.447H75.4121C67.1711 309.447 60.4678 302.757 60.4678 294.503V287.327H373.637Z" fill="#004BA5"/>
<path opacity="0.5" d="M254.852 287.327C254.852 290.362 252.384 292.83 249.349 292.83H184.757C181.722 292.83 179.254 290.362 179.254 287.327H254.852Z" fill="#0037B2"/>
<path d="M402.61 306.075C401.652 298.077 388.65 285.075 375.149 295.582C376.147 291.589 368.149 289.58 368.149 289.58C371.143 285.574 363.145 262.591 344.654 266.084C345.436 263.859 345.072 261.391 343.939 258.976C339.232 248.955 321.104 239.716 314.657 250.587C318.663 238.583 286.333 224.434 271.227 234.105C270.121 221.656 267.545 205.619 266.547 195.328C264.834 177.457 269.312 165.763 269.312 165.763H254.017L257.524 199.968L255.838 233.431C255.905 232.203 249.215 228.885 248.312 228.413C244.198 226.269 239.019 225.864 234.837 228.063C232.666 229.209 231.223 230.989 229.739 232.891C229.51 233.188 226.408 237.288 226.596 237.396L221.768 207.885L213.001 206.024L208.226 237.18C203.587 235.71 198.299 236.398 194.698 241.065C195.696 237.059 185.783 230.342 179.646 232.743C179.093 223.612 178.014 210.529 177.623 203.744C175.829 172.696 179.673 169.364 179.713 167.53L165.295 168.272C165.295 168.272 168.937 184.417 167.817 202.234C167.143 212.862 165.295 227.469 164.634 233.579C153.466 225.81 146.345 231.812 146.709 237.059C140.222 235.454 132.817 236.047 127.112 240.121C121.797 243.897 117.953 250.695 117.711 261.552C112.208 259.057 99.7182 266.556 101.714 280.044C97.7085 276.429 83.3577 278.156 86.2171 290.038C73.215 285.533 56.2206 297.038 56.2206 311.039C50.5827 312.252 46.2397 314.572 44.7695 315.422H111.331H248.217H305.472H332.515H418C417.069 313.561 412.025 304.268 402.61 306.075Z" fill="#C5C5C5"/>
<path opacity="0.5" d="M329.103 287.327H108.432C108.068 285.722 108.351 283.362 109.363 280.003C111.723 272.113 119.02 272.733 121.785 275.863C127.517 262.591 140.263 271.263 145.078 275.215C146.211 274.905 147.277 274.784 148.153 274.905C146.44 271.749 152.618 267.541 155.787 269.591C151.687 256.373 165.903 249.993 171.109 254.121C174.063 241.213 187.2 241.725 192.905 246.891C205.368 241.28 210.426 252.489 210.426 252.489C210.844 247.97 218.019 245.987 218.532 252.826C218.734 252.232 219.166 251.531 219.746 250.937C221.283 249.346 223.9 248.496 226.152 252.489C228.256 241.712 241.326 243.479 242.31 248.941C244.779 243.883 251.86 248.995 251.59 252.839C267.843 238.906 280.17 253.743 282.018 259.232C286.86 255.941 290.192 259.516 290.893 264.816C294.818 262.928 297.515 264.938 298.217 267.554C303.45 264.776 312.608 262.105 317.518 273.475C320.283 270.346 327.593 269.712 329.953 277.616C331.666 283.416 331.234 286.235 329.103 287.327Z" fill="#FFF9F9"/>
<path d="M218.743 16.8999C218.608 16.873 218.473 16.8325 218.338 16.819C217.893 16.7381 217.421 16.6572 216.976 16.6841C216.369 16.7246 215.789 16.8055 215.209 16.9269L216.558 5.57033C216.625 5.07128 217.34 5.07128 217.394 5.57033L218.743 16.8999Z" fill="#034C8E"/>
<path d="M171.616 41.1103L170.537 50.2954C170.51 50.4842 170.672 50.6595 170.861 50.6595H173.019C173.221 50.6595 173.37 50.4842 173.343 50.2954L172.264 41.1103C172.223 40.7191 171.657 40.7191 171.616 41.1103Z" fill="#034C8E"/>
<path d="M242.346 186.305H191.619C191.619 186.305 190.594 141.715 191.619 140.69C191.956 140.352 191.848 139.233 191.888 138.828C191.983 137.439 192.037 136.036 192.077 134.647C192.172 131.383 192.145 128.119 192.104 124.855C192.077 123.088 192.064 121.335 192.05 119.568C191.996 109.304 191.875 99.0532 191.767 88.8026C191.713 83.448 191.673 78.0934 191.646 72.7388C191.632 70.2706 191.659 67.7889 191.619 65.3206C191.578 61.9757 192.293 58.8331 192.981 55.569C193.601 52.6018 194.303 49.6615 195.112 46.7481C195.665 44.7789 196.258 42.7963 196.933 40.8271C198.389 36.5245 200.17 32.2894 202.503 28.4184C203.164 27.2855 203.892 26.2065 204.661 25.1544C206.9 22.0792 209.719 19.1389 213.266 17.5879C213.927 17.3046 214.575 17.1023 215.222 16.9404C215.802 16.8191 216.382 16.7381 216.989 16.6977C217.434 16.6707 217.906 16.7516 218.351 16.8325C218.486 16.8595 218.621 16.8865 218.756 16.9135C221.251 17.4935 223.49 19.004 225.351 20.69C227.671 22.7536 229.573 25.2488 231.191 27.9194C232.635 30.2932 233.848 32.8154 234.914 35.3241C235.683 37.1314 236.384 38.9792 237.018 40.8405C237.935 43.5111 238.744 46.2086 239.446 48.9331C241.01 54.9756 242.332 60.9776 242.346 67.2224C242.373 77.9585 242.197 88.7082 242.103 99.4578C241.995 108.953 241.887 118.435 241.914 127.917C241.914 130.951 241.928 133.986 242.022 137.021C242.049 137.763 241.779 140.11 242.373 140.717C243.371 141.715 242.346 186.305 242.346 186.305Z" fill="#50A4FF"/>
<path d="M218.017 52.7232C217.936 52.7097 217.869 52.6827 217.788 52.6692C217.531 52.6153 217.262 52.5748 216.992 52.5883C216.641 52.6153 216.304 52.6557 215.967 52.7367L216.749 46.1277C216.79 45.831 217.208 45.831 217.235 46.1277L218.017 52.7232Z" fill="#034C8E"/>
<path d="M185.563 73.0489H158.318C158.332 71.4034 158.345 70.4323 158.372 70.23C158.629 67.6538 160.422 63.5671 164.01 55.8791C164.968 53.802 166.276 51.6845 168.218 50.3896C169.729 49.3781 171.685 49.1488 173.451 49.4455C176.621 50.012 178.671 53.1951 179.899 55.8656C183.5 63.5536 185.28 67.6538 185.536 70.2165C185.55 70.4323 185.55 71.4034 185.563 73.0489Z" fill="#FEB80C"/>
<path d="M185.605 129.414V133.973C185.605 140.15 185.605 146.354 185.591 152.383C185.564 172.844 185.537 191.147 185.524 198.848C185.51 200.979 183.798 202.692 181.666 202.692H162.204C160.073 202.692 158.36 200.979 158.346 198.848C158.333 193.588 158.319 183.378 158.292 170.902C158.292 167.071 158.279 163.039 158.279 158.857C158.265 149.43 158.252 139.314 158.252 129.4H185.605V129.414Z" fill="#FEB80C"/>
<path d="M185.618 123.655C185.618 125.57 185.618 127.485 185.605 129.414H158.265C158.252 127.472 158.252 125.57 158.265 123.655C158.252 118.907 158.252 114.24 158.252 109.776C158.238 100.995 158.252 92.9433 158.265 86.4558C158.265 82.1263 158.279 78.4846 158.292 75.7466C158.306 74.7081 158.319 73.8044 158.319 73.0491H185.564C185.578 73.8044 185.591 74.7081 185.591 75.7466C185.632 84.6889 185.645 103.329 185.618 123.655Z" fill="#FEB80C"/>
<path d="M185.573 75.7466H158.274C158.288 74.7081 158.301 73.8044 158.301 73.0491H185.546C185.573 73.8044 185.573 74.7081 185.573 75.7466Z" fill="#0057B5"/>
<path d="M167.609 91.3248V104.907C167.609 107.604 165.438 109.776 162.74 109.776H158.235V95.4521C158.235 92.215 158.235 89.1938 158.249 86.4558H162.74C163.617 86.4558 164.44 86.6851 165.155 87.0897C166.625 87.926 167.609 89.504 167.609 91.3248Z" fill="#6EBAFF"/>
<path d="M185.629 123.655H158.235V129.414H185.629V123.655Z" fill="#0057B5"/>
<path d="M158.252 118.206H185.632" stroke="#0057B5" stroke-width="0.4517" stroke-miterlimit="10" stroke-linecap="round" stroke-linejoin="round"/>
<path d="M181.584 202.706H162.283V206.887H181.584V202.706Z" fill="url(#paint0_linear_4_3178)"/>
<path d="M181.584 202.706H162.283V206.887H181.584V202.706Z" fill="#0057B5"/>
<path d="M181.246 215.762H163.281C160.867 215.762 158.897 213.806 158.897 211.378V211.257C158.897 208.842 160.853 206.873 163.281 206.873H181.246C183.661 206.873 185.63 208.829 185.63 211.257V211.378C185.63 213.806 183.674 215.762 181.246 215.762Z" fill="#0057B5"/>
<path d="M275.727 109.776C275.727 142.578 275.646 185.846 275.619 198.848C275.619 200.979 273.893 202.692 271.762 202.692H252.313C250.182 202.692 248.455 200.979 248.455 198.848C248.415 180.046 248.266 97.9472 248.401 75.7331C248.401 74.6945 248.401 73.7908 248.415 73.0355H275.673C275.673 73.7908 275.687 74.6945 275.687 75.7331C275.7 78.471 275.714 82.1127 275.727 86.4422C275.727 92.9433 275.741 100.995 275.727 109.776Z" fill="#FEB80C"/>
<path d="M275.686 75.7466H248.4C248.4 74.7081 248.4 73.8044 248.414 73.0491H275.672C275.672 73.8044 275.686 74.7081 275.686 75.7466Z" fill="#0057B5"/>
<path d="M266.367 91.3247V104.907C266.367 107.604 268.539 109.776 271.236 109.776H275.741V102.196C275.741 98.7429 275.741 95.4519 275.728 92.4037C275.741 90.3131 275.728 88.3304 275.728 86.4691H271.236C270.791 86.4691 270.36 86.5366 269.968 86.6445C267.878 87.184 266.367 89.0722 266.367 91.3247Z" fill="#6EBAFF"/>
<path d="M275.741 123.655H248.348V129.414H275.741V123.655Z" fill="#0057B5"/>
<path d="M275.728 118.206H248.348" stroke="#0057B5" stroke-width="0.4517" stroke-miterlimit="10" stroke-linecap="round" stroke-linejoin="round"/>
<path d="M271.685 202.706H252.384V206.887H271.685V202.706Z" fill="url(#paint1_linear_4_3178)"/>
<path d="M271.685 202.706H252.384V206.887H271.685V202.706Z" fill="#0057B5"/>
<path d="M252.721 215.762H270.687C273.101 215.762 275.07 213.806 275.07 211.378V211.257C275.07 208.842 273.115 206.873 270.687 206.873H252.721C250.307 206.873 248.338 208.829 248.338 211.257V211.378C248.351 213.806 250.307 215.762 252.721 215.762Z" fill="#034C8E"/>
<path d="M226.592 200.804H207.723V205.39H226.592V200.804Z" fill="#50A4FF"/>
<path d="M228.158 213.078H206.146C204.028 213.078 202.302 211.351 202.302 209.234C202.302 207.116 204.028 205.39 206.146 205.39H228.158C230.275 205.39 232.002 207.116 232.002 209.234C231.988 211.351 230.275 213.078 228.158 213.078Z" fill="url(#paint2_linear_4_3178)"/>
<path d="M228.158 213.078H206.146C204.028 213.078 202.302 211.351 202.302 209.234C202.302 207.116 204.028 205.39 206.146 205.39H228.158C230.275 205.39 232.002 207.116 232.002 209.234C231.988 211.351 230.275 213.078 228.158 213.078Z" fill="#034C8E"/>
<path d="M225.107 200.912H208.854" stroke="#F200FF" stroke-width="0.1161" stroke-miterlimit="10"/>
<path opacity="0.2" d="M167.609 91.3248L158.235 102.641V95.4521L165.141 87.0897C166.625 87.926 167.609 89.504 167.609 91.3248Z" fill="#FEF6C4"/>
<path opacity="0.2" d="M167.612 95.2496V101.103L160.612 109.776H158.252V106.836L167.612 95.2496Z" fill="#FEF6C4"/>
<path opacity="0.2" d="M266.367 91.3246V92.8218L275.741 102.196C275.741 98.7428 275.741 95.4518 275.728 92.4036L269.968 86.6444C267.878 87.1839 266.367 89.0722 266.367 91.3246Z" fill="#FEF6C4"/>
<path opacity="0.2" d="M266.367 99.2959V104.907C266.367 107.604 268.539 109.776 271.236 109.776H275.741V108.67L266.367 99.2959Z" fill="#FEF6C4"/>
<path d="M158.265 86.4558H162.757C163.634 86.4558 164.456 86.6851 165.171 87.0897C166.641 87.926 167.626 89.504 167.626 91.3248V104.907C167.626 107.604 165.454 109.776 162.757 109.776H158.252" stroke="#0057B5" stroke-width="0.4517" stroke-miterlimit="10" stroke-linecap="round" stroke-linejoin="round"/>
<path d="M275.715 86.4558H271.224C270.779 86.4558 270.347 86.5232 269.956 86.6311C267.879 87.1841 266.354 89.0859 266.354 91.3248V104.907C266.354 107.604 268.526 109.776 271.224 109.776H275.728" stroke="#0057B5" stroke-width="0.4517" stroke-miterlimit="10" stroke-linecap="round" stroke-linejoin="round"/>
<path d="M231.637 28.6342C215.601 18.7478 202.086 29.1063 202.086 29.1063C202.248 28.8365 202.437 28.5668 202.639 28.297C202.652 28.2835 202.652 28.2835 202.666 28.2701C204.136 27.1506 216.154 18.6399 231.152 27.8654C231.314 28.1217 231.476 28.3779 231.637 28.6342Z" fill="#002899"/>
<path d="M231.19 27.9059C231.163 27.8924 231.163 27.8789 231.136 27.8789C216.138 18.6669 204.12 27.1776 202.65 28.2836C202.637 28.297 202.637 28.297 202.623 28.3105C202.529 28.378 202.488 28.4184 202.488 28.4184C203.149 27.2855 203.878 26.2065 204.646 25.1544C206.885 22.0792 209.704 19.1389 213.251 17.5879C213.912 17.3046 214.56 17.1023 215.207 16.9404C215.787 16.8191 216.367 16.7381 216.974 16.6977C217.419 16.6707 217.891 16.7516 218.336 16.8325C218.471 16.8595 218.606 16.8865 218.741 16.9135C221.236 17.4935 223.475 19.004 225.336 20.69C227.656 22.7401 229.571 25.2219 231.19 27.9059Z" fill="#0057B5"/>
<path opacity="0.2" d="M230.221 178.644C230.167 154.555 229.897 119.244 229.897 117.841C229.884 112.258 229.965 106.674 230.005 101.09C230.073 95.3306 230.154 89.5579 230.154 83.7987C230.154 80.157 229.695 76.5288 228.845 72.9816C228.441 71.3226 228.009 69.6771 227.496 68.0451C226.997 66.4401 226.431 64.862 225.77 63.3244C224.435 60.1818 222.708 57.0122 220.146 54.7058C218.986 53.6538 217.57 52.7231 216.032 52.4399C215.668 52.3725 215.115 52.359 214.751 52.4129C214.157 52.4804 213.604 52.6422 213.024 52.885C210.947 53.8022 209.275 55.5286 207.966 57.3494C205.646 60.5325 204.109 64.2686 202.949 68.0451C202.935 68.0586 202.935 68.0586 202.935 68.0586C202.679 68.8813 202.45 69.7041 202.221 70.5133C201.762 72.1723 201.384 73.8583 201.02 75.5307C200.643 77.3516 200.251 79.1185 200.278 80.9932C200.305 82.4499 200.292 83.9066 200.305 85.3632C200.319 88.5194 200.346 91.662 200.373 94.8181C200.413 100.092 200.481 105.365 200.521 110.653C199.118 113.566 196.583 118.192 192.091 124.869C192.132 128.133 192.159 131.397 192.064 134.661C196.407 130.439 198.916 128.402 200.467 127.202C200.386 141.202 200.251 162.593 200.224 178.657C200.197 185.293 200.197 191.012 200.238 194.91C200.238 195.314 200.278 195.719 200.359 196.097C200.602 197.446 201.236 198.659 202.167 199.617C203.124 200.629 204.406 201.343 205.849 201.6C206.051 201.64 206.267 201.667 206.469 201.694C206.672 201.721 206.874 201.721 207.09 201.721H223.342C227.119 201.721 230.167 198.686 230.194 194.91C230.234 190.918 230.234 185.199 230.221 178.644Z" fill="black"/>
<path opacity="0.2" d="M230.044 123.007C231.744 127.081 231.407 124.383 241.981 134.647C241.887 131.383 241.914 128.119 241.954 124.855C233.416 112.163 231.717 106.782 231.717 106.782C231.717 106.782 228.331 118.907 230.044 123.007Z" fill="black"/>
<path opacity="0.2" d="M185.614 133.973C185.614 140.15 185.601 146.368 185.587 152.397C184.724 154.69 183.712 154.932 179.396 160.26C173.597 167.436 165.045 169.661 162.928 171.199C161.916 171.94 159.758 172.291 158.302 170.915C158.302 167.098 158.288 163.052 158.288 158.871C172.18 150.819 185.115 134.593 185.614 133.973Z" fill="black"/>
<path opacity="0.2" d="M248.348 133.973C248.348 140.15 248.361 146.368 248.375 152.397C249.238 154.69 250.249 154.932 254.565 160.26C260.365 167.436 268.916 169.661 271.034 171.199C272.045 171.94 274.203 172.291 275.66 170.915C275.66 167.098 275.674 163.052 275.674 158.871C261.768 150.819 248.833 134.593 248.348 133.973Z" fill="black"/>
<path d="M202.301 114.564L202.004 192.711H149.78C149.065 192.711 148.364 192.603 147.716 192.374C145.086 191.511 143.185 189.043 143.185 186.116V175.326C143.185 172.831 144.601 170.565 146.826 169.445C147.123 169.297 147.42 169.148 147.716 168.987C184.605 150.077 202.301 114.564 202.301 114.564Z" fill="#0057B5"/>
<path d="M147.716 168.987V192.374C145.086 191.511 143.185 189.043 143.185 186.116V175.326C143.185 172.831 144.601 170.565 146.826 169.445C147.123 169.283 147.42 169.149 147.716 168.987Z" fill="#0057B5"/>
<path d="M231.651 114.564C231.651 114.564 249.765 150.657 287.261 169.445C289.486 170.565 290.903 172.831 290.903 175.326V186.116C290.903 189.758 287.949 192.698 284.321 192.698H231.651V114.564Z" fill="#0057B5"/>
<path d="M286.369 169V192.388C288.999 191.524 290.901 189.056 290.901 186.129V175.339C290.901 172.844 289.485 170.578 287.259 169.459C286.963 169.31 286.666 169.162 286.369 169Z" fill="#0057B5"/>
<path d="M231.975 194.101C231.949 197.877 228.887 200.912 225.124 200.912H208.871C208.655 200.912 208.453 200.898 208.251 200.885C208.048 200.858 207.833 200.831 207.63 200.79C206.201 200.534 204.919 199.833 203.948 198.808C203.031 197.85 202.384 196.65 202.141 195.288C202.06 194.91 202.019 194.505 202.019 194.101C201.992 190.189 201.992 184.47 202.006 177.848C202.06 152.923 202.343 115.117 202.33 112.136C202.303 109.048 202.276 105.945 202.249 102.843C202.235 101.953 202.222 101.049 202.222 100.146C202.208 98.109 202.195 96.0724 202.168 94.0223C202.141 90.8662 202.1 87.7236 202.1 84.5675C202.087 83.1108 202.1 81.6541 202.073 80.1975C202.046 78.3227 202.438 76.5558 202.815 74.735C203.179 73.049 203.557 71.3765 204.016 69.7176C204.245 68.8948 204.474 68.0721 204.73 67.2628C204.73 67.2628 204.73 67.2628 204.744 67.2493C205.89 63.4728 207.428 59.7232 209.761 56.5536C211.07 54.7328 212.742 53.0064 214.819 52.0892C215.399 51.8464 215.952 51.6846 216.546 51.6172C216.91 51.5632 217.463 51.5767 217.827 51.6441C219.378 51.9274 220.794 52.858 221.941 53.91C224.503 56.2164 226.23 59.386 227.565 62.5286C228.226 64.0662 228.779 65.6443 229.291 67.2493C229.804 68.8813 230.249 70.5268 230.64 72.1858C231.476 75.7331 231.948 79.3612 231.948 83.0029C231.948 88.7082 231.854 94.4404 231.8 100.146V100.294C231.787 101.144 231.773 101.993 231.773 102.843C231.733 107.577 231.679 112.312 231.692 117.046C231.692 118.448 231.975 153.759 232.016 177.848C232.002 184.39 232.002 190.122 231.975 194.101Z" fill="white"/>
<path d="M231.8 102.83H202.235C202.221 101.939 202.208 101.036 202.208 100.132H231.786C231.786 100.901 231.8 101.791 231.8 102.83Z" fill="#FEB80C"/>
<path d="M231.814 139.408H202.142V145.167H231.814V139.408Z" fill="#FEB80C"/>
<path d="M231.935 148.971H202.154V154.73H231.935V148.971Z" fill="#FEB80C"/>
<path d="M229.263 67.2358C216.477 59.6962 205.188 66.9256 204.716 67.2358C205.862 63.4592 207.4 59.7097 209.733 56.5401C211.042 54.7192 212.714 52.9928 214.791 52.0757C215.371 51.8329 215.924 51.671 216.518 51.6036C216.882 51.5497 217.435 51.5631 217.799 51.6306C219.35 51.9138 220.766 52.8445 221.913 53.8965C224.475 56.2029 226.202 59.3725 227.537 62.5151C228.198 64.0662 228.764 65.6442 229.263 67.2358Z" fill="#034C8E"/>
<path d="M231.975 194.101C231.949 197.877 228.887 200.912 225.124 200.912H208.871C208.655 200.912 208.453 200.899 208.251 200.885C208.048 200.858 207.833 200.831 207.63 200.791C206.255 200.507 204.96 199.793 203.948 198.808C203.031 197.85 202.384 196.65 202.141 195.288C202.06 194.91 202.019 194.505 202.019 194.101C201.992 190.189 201.992 184.471 202.006 177.848H231.989C232.002 184.39 232.002 190.122 231.975 194.101Z" fill="#034C8E"/>
<path d="M225.828 83.8662V87.899C225.544 87.7101 225.248 87.5348 224.951 87.3729C224.357 87.0492 223.737 86.7525 223.13 86.4827C222.483 86.213 221.822 85.9972 221.147 85.8219C220.648 85.687 220.122 85.5656 219.596 85.4982C218.814 85.3903 218.045 85.3903 217.249 85.3903H216.764C215.806 85.3903 214.835 85.4172 213.878 85.5791C213.581 85.633 213.298 85.687 213.001 85.7679C211.908 86.0511 210.843 86.4558 209.818 86.9548C209.669 87.0223 209.508 87.1032 209.359 87.1841C209.089 87.319 208.833 87.4674 208.577 87.6157C208.536 87.6427 208.132 87.8315 208.132 87.899V83.7987C208.132 83.4076 208.348 83.0569 208.698 82.8815L213.095 80.7235L216.966 78.8218L217.007 78.8488L220.136 80.3863L225.18 82.8681C225.194 82.8681 225.194 82.8815 225.207 82.8815C225.598 83.0569 225.828 83.448 225.828 83.8662Z" fill="#50A4FF"/>
<path opacity="0.2" d="M217.036 78.8351L213.017 85.7677C211.924 86.051 210.859 86.4556 209.834 86.9546C209.685 87.0221 209.523 87.103 209.375 87.1839L213.111 80.7098L216.982 78.8081L217.036 78.8351Z" fill="#FEF6C4"/>
<path opacity="0.2" d="M225.22 82.8679L223.13 86.4961C222.482 86.2263 221.821 86.0105 221.147 85.8352C220.648 85.7003 220.122 85.5789 219.596 85.5115C218.814 85.4036 218.045 85.4036 217.249 85.4036L220.162 80.3727L225.207 82.8544C225.207 82.8544 225.207 82.8679 225.22 82.8679Z" fill="#FEF6C4"/>
<path d="M225.828 83.8662V87.899C225.544 87.7101 225.248 87.5348 224.951 87.3729C224.357 87.0492 223.737 86.7525 223.13 86.4827C222.483 86.213 221.822 85.9972 221.147 85.8219C220.648 85.687 220.122 85.5656 219.596 85.4982C218.814 85.3903 218.045 85.3903 217.249 85.3903H216.764C215.806 85.3903 214.835 85.4172 213.878 85.5791C213.581 85.633 213.298 85.687 213.001 85.7679C211.908 86.0511 210.843 86.4558 209.818 86.9548C209.669 87.0223 209.508 87.1032 209.359 87.1841C209.089 87.319 208.833 87.4674 208.577 87.6157C208.536 87.6427 208.132 87.8315 208.132 87.899V83.7987C208.132 83.4076 208.348 83.0569 208.698 82.8815L213.095 80.7235L216.966 78.8218L217.007 78.8488L220.136 80.3863L225.18 82.8681C225.194 82.8681 225.194 82.8815 225.207 82.8815C225.598 83.0569 225.828 83.448 225.828 83.8662Z" stroke="#0057B5" stroke-width="0.4517" stroke-miterlimit="10" stroke-linecap="round" stroke-linejoin="round"/>
<path d="M262.486 41.4071L263.524 50.6462C263.551 50.8485 263.389 51.0103 263.2 51.0103L261.029 50.9968C260.827 50.9968 260.678 50.8215 260.705 50.6327L261.838 41.4071C261.879 41.016 262.445 41.016 262.486 41.4071Z" fill="#034C8E"/>
<path d="M275.703 73.5617L248.31 73.4268C248.337 71.7678 248.35 70.7967 248.377 70.5944C248.647 68.0183 250.468 63.9045 254.109 56.1896C255.377 53.5191 257.427 50.309 260.624 49.7695C262.418 49.4728 264.373 49.7155 265.87 50.7406C267.813 52.0489 269.107 54.18 270.079 56.2705C273.639 64.0124 275.433 68.1397 275.676 70.7293C275.676 70.9316 275.689 71.9162 275.703 73.5617Z" fill="#FEB80C"/>
<path opacity="0.3" d="M46.0456 86.8201L48.2576 85.1746C47.1786 83.4752 45.7354 82.032 44.036 80.953L42.3905 83.165C41.4463 82.585 40.4078 82.1534 39.3153 81.8837L39.7199 79.1457C38.7623 78.9299 37.7642 78.8085 36.7392 78.8085C35.7141 78.8085 34.716 78.9299 33.7584 79.1457L34.163 81.8837C33.057 82.1534 32.032 82.585 31.0878 83.165L29.4423 80.953C27.7429 82.032 26.2997 83.4752 25.2207 85.1746L27.4327 86.8201C26.8527 87.7642 26.4211 88.8028 26.1514 89.8953L23.4134 89.4907C23.1976 90.4483 23.0762 91.4464 23.0762 92.4714C23.0762 93.4965 23.1976 94.4946 23.4134 95.4522L26.1514 95.0476C26.4211 96.1536 26.8527 97.1786 27.4327 98.1228L25.2207 99.7683C26.2997 101.468 27.7429 102.911 29.4423 103.99L31.0878 101.778C32.032 102.358 33.0705 102.789 34.163 103.059L33.7584 105.797C34.716 106.013 35.7141 106.134 36.7392 106.134C37.7642 106.134 38.7623 106.013 39.7199 105.797L39.3153 103.059C40.4213 102.789 41.4463 102.358 42.3905 101.778L44.036 103.99C45.7354 102.911 47.1786 101.468 48.2576 99.7683L46.0456 98.1228C46.6256 97.1786 47.0572 96.1401 47.3269 95.0476L50.0649 95.4522C50.2807 94.4946 50.4021 93.4965 50.4021 92.4714C50.4021 91.4464 50.2807 90.4483 50.0649 89.4907L47.3269 89.8953C47.0572 88.8028 46.6121 87.7642 46.0456 86.8201ZM36.7257 99.7413C32.7198 99.7413 29.4693 96.4908 29.4693 92.4849C29.4693 88.4791 32.7198 85.2286 36.7257 85.2286C40.7315 85.2286 43.982 88.4791 43.982 92.4849C43.982 96.4908 40.7315 99.7413 36.7257 99.7413Z" fill="#50A4FF"/>
<path opacity="0.3" d="M321.666 55.785L323.082 54.7329C322.395 53.6404 321.464 52.7233 320.385 52.0354L319.333 53.4516C318.726 53.0875 318.065 52.8042 317.364 52.6289L317.62 50.8755C316.999 50.7406 316.366 50.6597 315.705 50.6597C315.044 50.6597 314.41 50.7406 313.789 50.8755L314.046 52.6289C313.344 52.8042 312.683 53.074 312.076 53.4516L311.024 52.0354C309.932 52.7233 309.015 53.6539 308.327 54.7329L309.743 55.785C309.379 56.3919 309.096 57.0528 308.92 57.7542L307.167 57.4979C307.032 58.1183 306.951 58.7523 306.951 59.4132C306.951 60.074 307.032 60.708 307.167 61.3284L308.92 61.0721C309.096 61.7735 309.365 62.4344 309.743 63.0413L308.327 64.0934C309.015 65.1859 309.945 66.103 311.024 66.7909L312.076 65.3747C312.683 65.7389 313.344 66.0221 314.046 66.1974L313.789 67.9508C314.41 68.0857 315.044 68.1666 315.705 68.1666C316.366 68.1666 316.999 68.0857 317.62 67.9508L317.364 66.1974C318.065 66.0221 318.726 65.7523 319.333 65.3747L320.385 66.7909C321.477 66.103 322.395 65.1724 323.082 64.0934L321.666 63.0413C322.03 62.4344 322.314 61.7735 322.489 61.0721L324.242 61.3284C324.377 60.708 324.458 60.074 324.458 59.4132C324.458 58.7523 324.377 58.1183 324.242 57.4979L322.489 57.7542C322.314 57.0528 322.044 56.3919 321.666 55.785ZM315.705 64.0529C313.142 64.0529 311.065 61.9758 311.065 59.4132C311.065 56.8505 313.142 54.7734 315.705 54.7734C318.267 54.7734 320.344 56.8505 320.344 59.4132C320.344 61.9758 318.267 64.0529 315.705 64.0529Z" fill="#50A4FF"/>
<g opacity="0.3">
<path d="M130.522 28.041C126.22 28.041 122.713 31.5343 122.713 35.8504C122.713 40.1664 126.206 43.6732 130.522 43.6732C134.838 43.6732 138.345 40.1799 138.345 35.8504C138.332 31.5343 134.838 28.041 130.522 28.041ZM130.522 39.3706C128.58 39.3706 126.988 37.8061 126.988 35.8369C126.988 33.8946 128.567 32.3031 130.522 32.3031C132.464 32.3031 134.056 33.8812 134.056 35.8369C134.043 37.8061 132.464 39.3706 130.522 39.3706Z" fill="#50A4FF"/>
<path d="M130.522 19.7325C121.634 19.7325 114.418 26.9484 114.418 35.8368C114.418 44.7386 121.634 51.941 130.522 51.941C139.424 51.941 146.626 44.7386 146.626 35.8368C146.626 26.9484 139.424 19.7325 130.522 19.7325ZM130.522 47.8003C123.913 47.8003 118.572 42.4457 118.572 35.8368C118.572 29.2278 123.913 23.8867 130.522 23.8867C137.131 23.8867 142.486 29.2278 142.486 35.8368C142.486 42.4457 137.118 47.8003 130.522 47.8003Z" fill="#50A4FF"/>
<path d="M130.524 28.041C126.222 28.041 122.715 31.5343 122.715 35.8504C122.715 40.1664 126.208 43.6732 130.524 43.6732C134.84 43.6732 138.347 40.1799 138.347 35.8504C138.334 31.5343 134.84 28.041 130.524 28.041ZM130.524 39.3706C128.582 39.3706 126.99 37.8061 126.99 35.8369C126.99 33.8946 128.568 32.3031 130.524 32.3031C132.466 32.3031 134.058 33.8812 134.058 35.8369C134.044 37.8061 132.466 39.3706 130.524 39.3706Z" fill="#50A4FF"/>
<path d="M130.524 28.041C126.222 28.041 122.715 31.5343 122.715 35.8504C122.715 40.1664 126.208 43.6732 130.524 43.6732C134.84 43.6732 138.347 40.1799 138.347 35.8504C138.334 31.5343 134.84 28.041 130.524 28.041ZM130.524 39.3706C128.582 39.3706 126.99 37.8061 126.99 35.8369C126.99 33.8946 128.568 32.3031 130.524 32.3031C132.466 32.3031 134.058 33.8812 134.058 35.8369C134.044 37.8061 132.466 39.3706 130.524 39.3706Z" fill="#50A4FF"/>
<path d="M145.918 19.2397L130.271 35.5916L130.797 36.0951L146.445 19.7433L145.918 19.2397Z" fill="#50A4FF"/>
<path d="M129.834 34.9804L129.59 35.2504L131.21 36.7169L131.454 36.447L129.834 34.9804Z" fill="#50A4FF"/>
<path d="M131.102 34.8996L129.636 36.5195L129.906 36.7639L131.372 35.144L131.102 34.8996Z" fill="#50A4FF"/>
<path d="M148.647 19.8673H146.178C146.07 19.8673 145.976 19.8268 145.909 19.7459C145.841 19.665 145.801 19.5706 145.814 19.4627L146.043 16.7652C146.057 16.5629 146.219 16.4145 146.435 16.428C146.637 16.4415 146.785 16.6168 146.772 16.8191L146.583 19.1255H148.66C148.862 19.1255 149.024 19.2873 149.024 19.4897C149.011 19.7055 148.849 19.8673 148.647 19.8673Z" fill="#50A4FF"/>
<path d="M147.26 21.2566H144.792C144.684 21.2566 144.589 21.2161 144.522 21.1352C144.454 21.0543 144.414 20.9599 144.427 20.852L144.657 18.1545C144.67 17.9521 144.832 17.8173 145.048 17.8173C145.25 17.8307 145.398 18.0061 145.385 18.2084L145.196 20.5148H147.273C147.476 20.5148 147.637 20.6766 147.637 20.8789C147.637 21.0813 147.462 21.2566 147.26 21.2566Z" fill="#50A4FF"/>
</g>
<g opacity="0.3">
<path d="M390.352 107.577C387.128 107.577 384.512 110.194 384.512 113.418C384.512 116.655 387.128 119.271 390.352 119.271C393.589 119.271 396.205 116.655 396.205 113.418C396.205 110.194 393.589 107.577 390.352 107.577ZM390.352 116.061C388.895 116.061 387.708 114.888 387.708 113.418C387.708 111.961 388.895 110.774 390.352 110.774C391.809 110.774 392.995 111.961 392.995 113.418C392.995 114.888 391.809 116.061 390.352 116.061Z" fill="#50A4FF"/>
<path d="M390.351 101.373C383.702 101.373 378.307 106.768 378.307 113.418C378.307 120.081 383.702 125.462 390.351 125.462C397.014 125.462 402.396 120.081 402.396 113.418C402.409 106.768 397.014 101.373 390.351 101.373ZM390.351 122.36C385.415 122.36 381.409 118.354 381.409 113.418C381.409 108.481 385.401 104.475 390.351 104.475C395.288 104.475 399.293 108.468 399.293 113.418C399.307 118.354 395.301 122.36 390.351 122.36Z" fill="#50A4FF"/>
<path d="M390.344 107.577C387.121 107.577 384.504 110.194 384.504 113.418C384.504 116.655 387.121 119.271 390.344 119.271C393.581 119.271 396.198 116.655 396.198 113.418C396.198 110.194 393.581 107.577 390.344 107.577ZM390.344 116.061C388.887 116.061 387.7 114.888 387.7 113.418C387.7 111.961 388.887 110.774 390.344 110.774C391.801 110.774 392.988 111.961 392.988 113.418C392.988 114.888 391.801 116.061 390.344 116.061Z" fill="#50A4FF"/>
<path d="M390.344 107.577C387.121 107.577 384.504 110.194 384.504 113.418C384.504 116.655 387.121 119.271 390.344 119.271C393.581 119.271 396.198 116.655 396.198 113.418C396.198 110.194 393.581 107.577 390.344 107.577ZM390.344 116.061C388.887 116.061 387.7 114.888 387.7 113.418C387.7 111.961 388.887 110.774 390.344 110.774C391.801 110.774 392.988 111.961 392.988 113.418C392.988 114.888 391.801 116.061 390.344 116.061Z" fill="#50A4FF"/>
<path d="M401.868 100.969L390.166 113.2L390.566 113.582L402.267 101.351L401.868 100.969Z" fill="#50A4FF"/>
<path d="M389.781 112.808L389.6 113.008L390.809 114.103L390.99 113.903L389.781 112.808Z" fill="#50A4FF"/>
<path d="M390.748 112.736L389.653 113.946L389.853 114.127L390.948 112.917L390.748 112.736Z" fill="#50A4FF"/>
<path d="M403.913 101.467H402.065C401.984 101.467 401.917 101.441 401.863 101.373C401.809 101.319 401.782 101.238 401.795 101.171L401.971 99.1476C401.984 98.9993 402.106 98.8914 402.267 98.8914C402.416 98.9048 402.524 99.0397 402.51 99.1881L402.362 100.915H403.913C404.061 100.915 404.183 101.036 404.183 101.184C404.183 101.346 404.061 101.467 403.913 101.467Z" fill="#50A4FF"/>
<path d="M402.881 102.506H401.033C400.952 102.506 400.885 102.479 400.831 102.412C400.777 102.358 400.75 102.277 400.763 102.209L400.939 100.186C400.952 100.038 401.073 99.9301 401.235 99.9301C401.384 99.9435 401.492 100.078 401.478 100.227L401.33 101.953H402.881C403.029 101.953 403.151 102.075 403.151 102.223C403.151 102.371 403.029 102.506 402.881 102.506Z" fill="#50A4FF"/>
</g>
<path d="M68.4624 34.7712C68.4624 36.0526 67.4239 37.0776 66.156 37.0776C64.8747 37.0776 63.8496 36.0391 63.8496 34.7712C63.8496 33.4899 64.8882 32.4649 66.156 32.4649C67.4239 32.4514 68.4624 33.4899 68.4624 34.7712Z" fill="white"/>
<path d="M22.2251 202.8C22.2251 204.082 21.1866 205.107 19.9187 205.107C18.6374 205.107 17.6123 204.068 17.6123 202.8C17.6123 201.519 18.6509 200.494 19.9187 200.494C21.1866 200.48 22.2251 201.519 22.2251 202.8Z" fill="white"/>
<path d="M275.836 34.7712C275.836 36.0526 274.798 37.0776 273.53 37.0776C272.249 37.0776 271.224 36.0391 271.224 34.7712C271.224 33.4899 272.262 32.4649 273.53 32.4649C274.798 32.4514 275.836 33.4899 275.836 34.7712Z" fill="white"/>
<path d="M5.66357 109.87C5.66357 111.152 4.62504 112.177 3.3572 112.177C2.07587 112.177 1.05078 111.138 1.05078 109.87C1.05078 108.589 2.08936 107.564 3.3572 107.564C4.62504 107.564 5.66357 108.589 5.66357 109.87Z" fill="white"/>
<path d="M407.541 135.942C408.815 135.942 409.847 134.909 409.847 133.636C409.847 132.362 408.815 131.329 407.541 131.329C406.267 131.329 405.234 132.362 405.234 133.636C405.234 134.909 406.267 135.942 407.541 135.942Z" fill="white"/>
<path d="M370.302 34.7712C370.302 36.0526 369.264 37.0776 367.996 37.0776C366.715 37.0776 365.689 36.0391 365.689 34.7712C365.689 33.4899 366.728 32.4649 367.996 32.4649C369.264 32.4514 370.302 33.4899 370.302 34.7712Z" fill="white"/>
<path d="M140.162 75.841C140.907 75.841 141.511 75.2371 141.511 74.4922C141.511 73.7473 140.907 73.1434 140.162 73.1434C139.417 73.1434 138.813 73.7473 138.813 74.4922C138.813 75.2371 139.417 75.841 140.162 75.841Z" fill="white"/>
<path d="M65.885 123.749C65.885 124.491 65.2781 125.098 64.5363 125.098C63.7944 125.098 63.1875 124.491 63.1875 123.749C63.1875 123.007 63.7944 122.4 64.5363 122.4C65.2781 122.414 65.885 123.007 65.885 123.749Z" fill="white"/>
<path d="M190.161 9.80555C190.161 10.5474 189.554 11.1543 188.813 11.1543C188.071 11.1543 187.464 10.5474 187.464 9.80555C187.464 9.06373 188.071 8.45679 188.813 8.45679C189.554 8.47027 190.161 9.06373 190.161 9.80555Z" fill="white"/>
<path d="M361.697 77.1897C362.442 77.1897 363.046 76.5859 363.046 75.841C363.046 75.096 362.442 74.4922 361.697 74.4922C360.952 74.4922 360.349 75.096 360.349 75.841C360.349 76.5859 360.952 77.1897 361.697 77.1897Z" fill="white"/>
<path d="M408.014 209.584C408.759 209.584 409.363 208.981 409.363 208.236C409.363 207.491 408.759 206.887 408.014 206.887C407.269 206.887 406.665 207.491 406.665 208.236C406.665 208.981 407.269 209.584 408.014 209.584Z" fill="white"/>
<g opacity="0.6">
<g opacity="0.3">
<path d="M72.1022 11.8018C71.6976 11.8018 71.3604 11.4646 71.3604 11.06V5.85374C71.3604 5.44911 71.6976 5.11194 72.1022 5.11194C72.5068 5.11194 72.844 5.44911 72.844 5.85374V11.06C72.844 11.4781 72.5203 11.8018 72.1022 11.8018Z" fill="#50A4FF"/>
<path d="M74.7117 9.19861H69.5055C69.1008 9.19861 68.7637 8.86142 68.7637 8.45679C68.7637 8.05216 69.1008 7.71497 69.5055 7.71497H74.7117C75.1164 7.71497 75.4535 8.05216 75.4535 8.45679C75.4535 8.87491 75.1164 9.19861 74.7117 9.19861Z" fill="#50A4FF"/>
</g>
<g opacity="0.3">
<path d="M96.4225 79.1857C96.0179 79.1857 95.6807 78.8485 95.6807 78.4439V73.2377C95.6807 72.833 96.0179 72.4958 96.4225 72.4958C96.8271 72.4958 97.1643 72.833 97.1643 73.2377V78.4439C97.1643 78.8485 96.8406 79.1857 96.4225 79.1857Z" fill="#50A4FF"/>
<path d="M99.0281 76.5826H93.8219C93.4173 76.5826 93.0801 76.2454 93.0801 75.8408C93.0801 75.4362 93.4173 75.099 93.8219 75.099H99.0281C99.4328 75.099 99.7699 75.4362 99.7699 75.8408C99.7699 76.2454 99.4328 76.5826 99.0281 76.5826Z" fill="#50A4FF"/>
</g>
<g opacity="0.3">
<path d="M266.366 6.68988C265.961 6.68988 265.624 6.35268 265.624 5.94805V0.741824C265.624 0.337195 265.961 0 266.366 0C266.77 0 267.108 0.337195 267.108 0.741824V5.94805C267.094 6.36617 266.77 6.68988 266.366 6.68988Z" fill="#50A4FF"/>
<path d="M268.953 4.08678H263.747C263.342 4.08678 263.005 3.74958 263.005 3.34495C263.005 2.94032 263.342 2.60315 263.747 2.60315H268.953C269.358 2.60315 269.695 2.94032 269.695 3.34495C269.695 3.76307 269.371 4.08678 268.953 4.08678Z" fill="#50A4FF"/>
</g>
<g opacity="0.3">
<path d="M405.226 194.775C404.822 194.775 404.484 194.438 404.484 194.033V188.827C404.484 188.422 404.822 188.085 405.226 188.085C405.631 188.085 405.968 188.422 405.968 188.827V194.033C405.968 194.438 405.631 194.775 405.226 194.775Z" fill="#50A4FF"/>
<path d="M407.83 192.172H402.624C402.219 192.172 401.882 191.835 401.882 191.43C401.882 191.025 402.219 190.688 402.624 190.688H407.83C408.234 190.688 408.572 191.025 408.572 191.43C408.572 191.835 408.234 192.172 407.83 192.172Z" fill="#50A4FF"/>
</g>
<g opacity="0.3">
<path d="M386.552 82.153C386.148 82.153 385.811 81.8158 385.811 81.4112V76.205C385.811 75.8003 386.148 75.4631 386.552 75.4631C386.957 75.4631 387.294 75.8003 387.294 76.205V81.4112C387.294 81.8293 386.957 82.153 386.552 82.153Z" fill="#50A4FF"/>
<path d="M389.156 79.55H383.95C383.545 79.55 383.208 79.2129 383.208 78.8082C383.208 78.4036 383.545 78.0664 383.95 78.0664H389.156C389.561 78.0664 389.898 78.4036 389.898 78.8082C389.898 79.2263 389.561 79.55 389.156 79.55Z" fill="#50A4FF"/>
</g>
<g opacity="0.3">
<path d="M3.34239 152.316C2.93776 152.316 2.60059 151.979 2.60059 151.574V146.368C2.60059 145.963 2.93776 145.626 3.34239 145.626C3.74702 145.626 4.08419 145.963 4.08419 146.368V151.574C4.08419 151.992 3.74702 152.316 3.34239 152.316Z" fill="#50A4FF"/>
<path d="M5.94805 149.713H0.741845C0.337216 149.713 0 149.376 0 148.971C0 148.566 0.337216 148.229 0.741845 148.229H5.94805C6.35268 148.229 6.6899 148.566 6.6899 148.971C6.6899 149.389 6.35268 149.713 5.94805 149.713Z" fill="#50A4FF"/>
</g>
</g>
<defs>
<linearGradient id="paint0_linear_4_3178" x1="162.286" y1="204.792" x2="181.589" y2="204.792" gradientUnits="userSpaceOnUse">
<stop stop-color="#EAEBEB"/>
<stop offset="0.9568" stop-color="#9AB8E9"/>
</linearGradient>
<linearGradient id="paint1_linear_4_3178" x1="271.692" y1="204.792" x2="252.39" y2="204.792" gradientUnits="userSpaceOnUse">
<stop stop-color="#EAEBEB"/>
<stop offset="0.9568" stop-color="#9AB8E9"/>
</linearGradient>
<linearGradient id="paint2_linear_4_3178" x1="202.3" y1="209.234" x2="231.994" y2="209.234" gradientUnits="userSpaceOnUse">
<stop stop-color="#EAEBEB"/>
<stop offset="0.9568" stop-color="#9AB8E9"/>
</linearGradient>
</defs>
</svg>
